<?xml version="1.0" standalone="no"?>
<!DOCTYPE svg PUBLIC "-//W3C//DTD SVG 20010904//EN"
 "http://www.w3.org/TR/2001/REC-SVG-20010904/DTD/svg10.dtd">
<svg version="1.0" xmlns="http://www.w3.org/2000/svg"
 width="180.000000pt" height="180.000000pt" viewBox="0 0 180.000000 180.000000"
 preserveAspectRatio="xMidYMid meet">
<metadata>
Created by potrace 1.11, written by Peter Selinger 2001-2013
</metadata>
<g transform="translate(0.000000,180.000000) scale(0.100000,-0.100000)"
fill="#000000" stroke="none">
<path d="M1174 1566 c20 -31 36 -60 36 -64 0 -4 11 -24 25 -45 14 -20 22 -37
18 -37 -4 0 -3 -4 2 -8 11 -7 78 -136 81 -155 4 -21 49 -122 55 -125 4 -2 5
-12 2 -22 -3 -11 0 -20 6 -20 6 0 11 -12 11 -26 0 -14 4 -33 9 -42 9 -18 18
-58 28 -127 3 -22 10 -48 15 -59 7 -12 7 -16 0 -12 -6 4 -10 -2 -9 -14 1 -11
5 -20 10 -20 4 0 6 -4 2 -9 -3 -6 -7 -35 -10 -66 -12 -161 -104 -276 -250
-311 -39 -10 -257 -14 -270 -6 -5 4 -19 7 -30 7 -11 0 -27 5 -35 10 -13 8 -13
7 -1 -8 7 -9 17 -17 22 -17 4 0 18 -4 31 -9 13 -5 28 -10 33 -11 6 -1 16 -6
23 -12 6 -6 12 -7 12 -3 0 4 7 2 15 -5 8 -7 15 -10 15 -7 0 3 16 -1 35 -9 19
-8 35 -12 35 -9 0 2 12 0 28 -6 15 -6 36 -13 47 -15 11 -2 34 -6 50 -9 68 -15
125 -22 169 -21 25 1 46 -3 46 -7 0 -4 8 -4 18 1 9 4 24 8 32 7 8 -1 32 5 53
12 20 6 37 10 37 7 0 -7 52 27 83 55 30 27 55 67 64 104 11 44 6 208 -8 225
-2 3 -4 11 -13 55 -5 20 -12 37 -17 37 -5 0 -8 3 -7 8 3 15 -15 62 -24 62 -5
0 -6 5 -2 11 3 6 3 14 -2 18 -5 3 -29 46 -54 96 -25 49 -51 96 -57 103 -7 7
-16 24 -19 38 -3 13 -10 24 -14 24 -4 0 -13 14 -20 30 -7 17 -16 30 -21 30 -5
0 -9 5 -9 11 0 11 -74 122 -98 147 -7 8 -19 27 -27 43 -9 16 -20 29 -25 29 -6
0 -10 5 -10 11 0 6 -6 17 -12 24 -15 16 -18 21 -77 98 -58 77 -72 83 -27 13z"/>
<path d="M867 1584 c-2 -3 -15 -7 -27 -9 -51 -10 -129 -62 -197 -131 -40 -40
-73 -77 -73 -82 0 -5 -7 -15 -15 -22 -41 -34 -285 -459 -285 -497 0 -7 -4 -13
-10 -13 -5 0 -10 -6 -10 -14 0 -8 -15 -47 -34 -88 -60 -128 -67 -148 -52 -148
8 0 16 8 19 18 4 9 18 35 32 57 13 22 30 50 37 63 6 12 15 22 20 22 4 0 8 7 8
15 0 8 5 15 10 15 6 0 10 5 10 11 0 7 16 31 35 55 19 23 35 44 35 47 0 16 244
267 260 267 5 0 15 6 22 14 21 20 131 76 151 76 9 0 17 4 17 8 0 9 28 12 113
13 144 1 286 -140 363 -358 18 -53 40 -77 23 -25 -10 31 -34 171 -32 190 0 6
-3 12 -8 12 -5 0 -8 3 -7 8 3 12 -13 86 -22 97 -5 6 -8 12 -8 15 0 16 -16 67
-24 77 -5 7 -7 16 -4 22 3 5 3 11 -1 13 -5 1 -24 33 -43 71 -19 37 -45 77 -57
89 -13 12 -23 27 -23 35 0 7 -7 13 -15 13 -7 0 -18 6 -22 14 -8 14 -67 47 -80
45 -4 -1 -10 0 -13 1 -10 5 -89 8 -93 4z"/>
<path d="M689 1033 c-9 -10 -38 -36 -65 -57 -117 -94 -262 -253 -314 -345 -8
-14 -18 -27 -22 -29 -5 -2 -8 -9 -8 -15 0 -7 -6 -24 -14 -39 -12 -23 -27 -83
-27 -113 -1 -50 33 -145 51 -145 6 0 10 -6 10 -12 0 -29 146 -109 225 -124 6
-1 12 -3 15 -4 26 -9 124 -22 197 -25 39 -2 77 -6 82 -10 6 -3 11 -1 11 5 0 6
5 8 12 4 19 -12 48 -12 48 0 0 7 3 7 8 1 8 -12 132 -14 132 -2 0 5 6 5 12 1
15 -10 48 -13 48 -5 0 3 36 6 80 6 44 0 80 2 80 5 0 3 24 7 53 8 57 3 112 9
112 12 0 1 20 3 45 5 25 2 70 8 100 13 47 7 34 9 -90 11 -80 1 -163 4 -185 6
-22 3 -61 7 -87 9 -26 2 -52 7 -57 11 -6 3 -11 1 -11 -6 0 -8 -4 -8 -13 -1 -7
6 -30 12 -50 14 -20 1 -37 5 -37 9 0 5 -9 6 -20 4 -11 -2 -22 0 -25 5 -3 4
-18 7 -34 6 -17 -1 -28 2 -25 6 3 4 -9 8 -25 8 -17 0 -31 5 -31 12 0 6 -3 8
-7 5 -3 -4 -12 -2 -20 4 -7 6 -13 9 -13 6 0 -4 -37 12 -82 35 -117 59 -216
164 -235 248 -13 56 -5 137 20 205 26 73 71 147 133 220 25 30 48 65 42 65 -2
0 -11 -8 -19 -17z"/>
<path d="M140 552 c0 -10 -5 -23 -11 -29 -8 -8 -7 -13 3 -18 7 -5 10 -5 6 0
-4 4 2 21 13 36 17 24 18 29 5 29 -9 0 -16 -8 -16 -18z"/>
</g>
</svg>
